<svg width="687" height="687" viewBox="0 0 687 687" xmlns="http://www.w3.org/2000/svg" xmlns:xlink="http://www.w3.org/1999/xlink">
    <path id="Path" fill="#fc433f" stroke="none" d="M 234.914001 519.325012 C 180.914001 575.857971 136.914001 622.392029 137.181 622.65802 C 137.580994 623.192017 630.114014 496.791992 630.781006 495.992004 C 631.314026 495.59198 336.514008 416.391998 334.64801 416.391998 C 333.847992 416.391998 289.048004 462.65802 234.914001 519.325012 Z"/>
    <path id="path1" fill="#424242" stroke="none" d="M 271.72699 0.781494 L 376.276001 355.328003 L 648.098022 428.515991 L 271.72699 0.781494 Z"/>
    <path id="path2" fill="#848484" stroke="none" d="M 231.502991 104.932983 C 230.389008 109.639038 205.497986 206.974976 176.272003 321.028015 C 147.046997 435.082001 121.783997 534.028015 120.050003 540.838989 L 117.078003 553.223022 L 124.632004 544.926025 C 128.843002 540.46698 170.822998 496.505005 217.757996 447.34201 C 264.81601 398.303009 303.32901 357.312988 303.576996 356.570007 C 303.700012 355.703003 288.59201 298.738007 269.893005 230.007996 C 251.194 161.155029 235.466003 102.952026 234.846985 100.598999 L 233.733002 96.264038 L 231.502991 104.932983 Z"/>
</svg>
